<?xml version="1.0" encoding="UTF-8" standalone="no"?>
<!-- Created with Inkscape (http://www.inkscape.org/) -->

<svg
   width="1024"
   height="1024"
   viewBox="0 0 270.93333 270.93333"
   version="1.1"
   id="svg1"
   inkscape:version="1.4.3 (0d15f75042, 2025-12-25)"
   sodipodi:docname="icon-background.svg"
   inkscape:export-filename="icon.png"
   inkscape:export-xdpi="96"
   inkscape:export-ydpi="96"
   xml:space="preserve"
   xmlns:inkscape="http://www.inkscape.org/namespaces/inkscape"
   xmlns:sodipodi="http://sodipodi.sourceforge.net/DTD/sodipodi-0.dtd"
   xmlns="http://www.w3.org/2000/svg"
   xmlns:svg="http://www.w3.org/2000/svg"><sodipodi:namedview
     id="namedview1"
     pagecolor="#ffffff"
     bordercolor="#000000"
     borderopacity="0.25"
     inkscape:showpageshadow="2"
     inkscape:pageopacity="0.0"
     inkscape:pagecheckerboard="0"
     inkscape:deskcolor="#d1d1d1"
     inkscape:document-units="px"
     inkscape:zoom="0.49175085"
     inkscape:cx="205.38856"
     inkscape:cy="492.11913"
     inkscape:window-width="2560"
     inkscape:window-height="1403"
     inkscape:window-x="5120"
     inkscape:window-y="0"
     inkscape:window-maximized="1"
     inkscape:current-layer="g3"
     showguides="true"><sodipodi:guide
       position="135.46667,216.69375"
       orientation="0,1"
       id="guide4"
       inkscape:locked="false"
       inkscape:label=""
       inkscape:color="rgb(0,134,229)" /><sodipodi:guide
       position="135.46667,54.239583"
       orientation="0,1"
       id="guide5"
       inkscape:locked="false"
       inkscape:label=""
       inkscape:color="rgb(0,134,229)" /><sodipodi:guide
       position="135.46667,135.46667"
       orientation="-1,0"
       id="guide6"
       inkscape:locked="false"
       inkscape:label=""
       inkscape:color="rgb(0,134,229)" /><sodipodi:guide
       position="135.46667,135.46667"
       orientation="0,1"
       id="guide7"
       inkscape:locked="false"
       inkscape:label=""
       inkscape:color="rgb(0,134,229)" /></sodipodi:namedview><defs
     id="defs1" /><g
     inkscape:label="background"
     inkscape:groupmode="layer"
     id="g3"
     style="display:inline"><rect
       style="display:none;fill:#ffffff;stroke-width:0.464635"
       id="rect1"
       width="270.93332"
       height="270.93332"
       x="7.1207683e-06"
       y="7.1207683e-06"
       inkscape:label="white" /><rect
       style="display:inline;fill:#1b4f9b;fill-opacity:1;stroke-width:0.464635"
       id="rect2"
       width="270.93332"
       height="270.93332"
       x="7.1207683e-06"
       y="7.1207683e-06"
       inkscape:label="blue" /></g><g
     inkscape:groupmode="layer"
     id="layer2"
     inkscape:label="player"
     style="display:none"><g
       id="g1"
       transform="matrix(12.283031,0,0,12.283031,-2103.7043,-283.78857)"
       style="display:inline"><g
         transform="matrix(0.26458333,0,0,0.26458333,155.31042,-71.172916)"
         id="g1108"><g
           id="use1108"><path
             fill="#333333"
             stroke="none"
             d="m 98.35,420.05 q 0,-2.1 -1.85,-3.55 -1.75,-1.5 -4.3,-1.5 -2.55,0 -4.4,1.5 -1.8,1.45 -1.8,3.55 0,0.15 0.05,0.2 0,0.15 0,0.25 0.1,0.9 1.55,1.6 0.1,0.05 0.2,0.1 0.5,0.2 1.1,0.4 1.5,0.4 3.3,0.4 1.8,0 3.25,-0.4 0.55,-0.2 1.05,-0.4 0.9,-0.45 1.4,-0.9 0.35,-0.4 0.45,-0.8 0,-0.1 0,-0.25 0,-0.05 0,-0.2 z"
             id="path19" /></g></g><g
         transform="matrix(0.26458333,0,0,0.26458333,155.31042,-71.172916)"
         id="g1109"><g
           id="use1109"><path
             fill="#333333"
             stroke="none"
             d="m 107.5,416.5 q -1.85,1.45 -1.85,3.55 0,0.15 0.05,0.2 0,0.15 0,0.25 0.1,0.9 1.55,1.6 0.1,0.05 0.25,0.1 0.5,0.2 1.05,0.4 1.5,0.4 3.3,0.4 1.85,0 3.25,-0.4 0.55,-0.2 1.1,-0.4 0.85,-0.45 1.35,-0.9 0.35,-0.4 0.45,-0.8 0,-0.1 0,-0.25 0,-0.05 0,-0.2 0,-2.1 -1.8,-3.55 -1.8,-1.5 -4.35,-1.5 -2.55,0 -4.35,1.5 z"
             id="path18" /></g></g><g
         transform="matrix(0.26458333,0,0,0.26458333,155.31042,-71.172916)"
         id="g1110"><g
           id="use1110"><path
             fill="#e74c3c"
             stroke="none"
             d="m 107.3,414.35 q 0.2,0.25 0.45,0.55 1.4,1.9 2,4.1 h 4.5 q 3.4,0 4.1,-2.95 0.05,-0.2 0.1,-0.4 0,-0.15 0.05,-0.35 0.05,-0.45 0.15,-0.95 v -0.05 q 0.5,-7.55 -3.2,-10.85 H 88.6 q -3.65,3.55 -3.1,10.9 0.05,0.65 0.2,1.3 0.05,0.45 0.15,0.75 0.15,0.55 0.4,0.95 1,1.65 3.5,1.65 h 4.5 q 0.55,-2.2 2,-4.1 0.25,-0.3 0.5,-0.55 2.2,-2.4 5.25,-2.4 3.05,0 5.3,2.4 z"
             id="path16" /><path
             fill="#cd4335"
             stroke="none"
             d="m 107.75,414.9 q -0.25,-0.3 -0.45,-0.55 -2.25,-2.4 -5.3,-2.4 -3.05,0 -5.25,2.4 -0.25,0.25 -0.5,0.55 -1.45,1.9 -2,4.1 h 1.55 q 0.2,-0.15 0.45,-0.35 2.35,-1.4 5.75,-1.4 3.4,0 5.75,1.4 0.2,0.2 0.45,0.35 h 1.55 q -0.6,-2.2 -2,-4.1 z"
             id="path17" /></g></g><g
         transform="matrix(0.26458333,0,0,0.26458333,155.31042,-71.172916)"
         id="g1111"><g
           id="use1111"><path
             fill="#d7bd93"
             stroke="none"
             d="m 118.55,393 q -1.85,0 -3.15,1.1 -1.25,1.2 -1.3,2.8 v 0.15 q 0.05,1.65 1.3,2.7 1.3,1.25 3.15,1.25 1.85,0 3.15,-1.25 1.3,-1.1 1.3,-2.7 0,-1.75 -1.3,-2.95 -1.3,-1.1 -3.15,-1.1 m -33.15,0 q -1.8,0 -3.1,1.1 -1.3,1.2 -1.3,2.8 v 0.15 q 0,1.65 1.3,2.7 1.3,1.25 3.1,1.25 1.85,0 3.15,-1.25 1.3,-1.1 1.3,-2.7 0,-1.75 -1.3,-2.95 -1.3,-1.1 -3.15,-1.1 z"
             id="path15" /></g></g><g
         transform="matrix(0.26458333,0,0,0.26458333,155.31042,-71.172916)"
         id="g1112"><g
           id="use1112"><path
             fill="#2ecc71"
             stroke="none"
             d="m 107.75,408.45 q 1.4,-0.95 2,-2.15 h -15.5 q 0.55,1.2 2,2.15 2.35,1.55 5.75,1.55 3.4,0 5.75,-1.55 z"
             id="path12" /><path
             fill="#694c39"
             stroke="none"
             d="m 114.35,383.1 q 0.65,8 4.65,12.2 0.05,-1.9 -0.05,-3.8 -0.2,-2.9 -0.55,-5.85 -0.25,-1.6 -1.1,-2.55 -1.05,-1.1 -3.05,-1.1 0.05,0.6 0.1,1.1 m -29.3,12.2 q 4.75,-3.85 4.75,-12.2 -0.05,-0.5 -0.05,-1.1 -1.9,0 -2.95,1.1 -0.9,0.95 -1.1,2.65 -0.5,3.2 -0.65,6.4 -0.05,1.55 0,3.15 z"
             id="path13" /><path
             fill="#ffe0b1"
             stroke="none"
             d="m 89.8,383.1 q 0,8.35 -4.75,12.2 0.05,3.65 0.65,7.3 0.05,0.45 0.15,0.8 0.15,0.65 0.4,1.1 1,1.8 3.5,1.8 h 4.5 15.5 4.5 q 3.4,0 4.1,-3.25 0.05,-0.25 0.1,-0.45 0,-0.2 0.05,-0.4 0.4,-3.1 0.5,-6.3 0,-0.3 0,-0.6 -4,-4.2 -4.65,-12.2 -0.05,-0.5 -0.1,-1.1 h -24.5 q 0,0.6 0.05,1.1 z"
             id="path14" /></g></g><g
         transform="matrix(0.26458333,0,0,0.26458333,155.31042,-71.172916)"
         id="g1113"><g
           id="use1113"><path
             fill="#694c39"
             stroke="none"
             d="m 111,393 q -0.8,0 -1.4,0.9 -0.6,0.8 -0.6,2.1 0,1.3 0.6,2.1 0.6,0.9 1.4,0.9 0.9,0 1.4,-0.9 0.6,-0.8 0.6,-2.1 0,-1.3 -0.6,-2.1 -0.5,-0.9 -1.4,-0.9 z"
             id="path11" /></g></g><g
         transform="matrix(0.26458333,0,0,0.26458333,155.31042,-71.172916)"
         id="g1114"><g
           id="use1114"><path
             fill="#694c39"
             stroke="none"
             d="m 93,393 q -0.8,0 -1.4,0.9 -0.6,0.8 -0.6,2.1 0,1.3 0.6,2.1 0.6,0.9 1.4,0.9 0.85,0 1.4,-0.9 0.6,-0.8 0.6,-2.1 0,-1.3 -0.6,-2.1 Q 93.85,393 93,393 Z"
             id="path10" /></g></g><g
         transform="matrix(0.26458333,0,0,0.26458333,155.31042,-71.172916)"
         id="g1115"><g
           id="use1115"><path
             fill="#694c39"
             stroke="none"
             d="m 95,403.3 q 0,0.75 2.05,1.2 2.1,0.5 4.95,0.5 2.9,0 5,-0.5 2,-0.45 2,-1.2 0,-1.75 -2,-3 -2.1,-1.3 -5,-1.3 -2.85,0 -4.95,1.3 -1.85,1.25 -2.05,3 z"
             id="path9" /></g></g><g
         transform="matrix(0.26458333,0,0,0.26458333,155.31042,-71.172916)"
         id="g1116"><g
           id="use1116"><path
             fill="#2ecc71"
             stroke="none"
             d="M 84,388.55 Q 83.95,391 86.65,391 h 30.7 q 2.65,0 2.65,-2.45 v -2.35 q -17.75,-2.05 -36,0 z"
             id="path7" /><path
             fill="#28b162"
             stroke="none"
             d="m 84,378.6 v 7.6 q 18.25,-2.05 36,0 v -7.6 h -0.05 q -0.55,-3.95 -5.3,-4.6 -12.65,-1.95 -25.25,-0.05 -4.85,0.7 -5.35,4.65 z"
             id="path8" /></g></g><g
         transform="matrix(0.26458333,0,0,0.26458333,155.31042,-71.172916)"
         id="g1117"><g
           id="use1117"><path
             fill="#d7bd93"
             stroke="none"
             d="m 99,399.9 q 0,0.45 0.9,0.8 0.9,0.3 2.15,0.3 1.2,0 2.1,-0.3 0.85,-0.35 0.85,-0.8 0,-1.15 -0.85,-2 -0.9,-0.9 -2.1,-0.9 -1.25,0 -2.15,0.9 -0.8,0.85 -0.9,2 z"
             id="path6" /></g></g><g
         transform="matrix(0.26458333,0,0,0.26458333,155.31042,-71.172916)"
         id="g1118"><g
           id="use1118"><path
             fill="#ffe0b1"
             stroke="none"
             d="m 91,409.3 q -0.05,-0.05 -0.1,-0.05 -0.05,-0.05 -0.1,-0.1 -0.3,-0.15 -0.55,-0.25 -1.75,-0.85 -3.55,-0.35 -2.35,0.65 -3.5,2.6 -0.5,0.85 -0.6,1.65 -0.2,1.2 0.15,2.55 0.5,1.85 2.05,2.95 0.25,0.15 0.55,0.3 0.1,0.1 0.2,0.15 1.15,0.6 2.65,-0.3 1.65,-0.9 2.75,-2.9 1.15,-1.9 1.15,-3.85 -0.05,-1.75 -1.1,-2.4 z"
             id="path4" /><path
             fill="#2ecc71"
             stroke="none"
             d="m 86.45,405 q -1.6,0.3 -2.7,1.45 -1.75,1.7 -1.75,3.95 0,1.3 0.6,2.4 0.1,-0.8 0.6,-1.65 1.15,-1.95 3.5,-2.6 1.8,-0.5 3.55,0.35 0.25,0.1 0.55,0.25 -4.05,-2.8 -4.35,-4.15 z"
             id="path5" /></g></g><g
         transform="matrix(0.26458333,0,0,0.26458333,155.31042,-71.172916)"
         id="g1119"><g
           id="use1119"><path
             fill="#ffe0b1"
             stroke="none"
             d="m 121.4,412.8 q -0.15,-0.8 -0.6,-1.65 -1.15,-1.95 -3.5,-2.6 -1.8,-0.5 -3.55,0.35 -0.25,0.1 -0.55,0.25 -0.05,0.05 -0.1,0.1 -0.05,0 -0.1,0.05 -1.05,0.65 -1.1,2.4 0,1.95 1.15,3.85 1.1,2 2.75,2.9 1.5,0.9 2.65,0.3 0.1,-0.05 0.2,-0.15 0.3,-0.15 0.55,-0.3 1.55,-1.1 2.05,-2.95 0.35,-1.35 0.15,-2.55 z"
             id="path2" /><path
             fill="#2ecc71"
             stroke="none"
             d="m 120.25,406.45 q -1.1,-1.15 -2.7,-1.45 -0.3,1.35 -4.35,4.15 0.3,-0.15 0.55,-0.25 1.75,-0.85 3.55,-0.35 2.35,0.65 3.5,2.6 0.45,0.85 0.6,1.65 0.6,-1.1 0.6,-2.4 0,-2.25 -1.75,-3.95 z"
             id="path3" /></g></g><g
         transform="matrix(0.26458333,0,0,0.26458333,155.31042,-71.172916)"
         id="g1120"><g
           id="use1120"><path
             fill="#ffffff"
             stroke="none"
             d="m 101.95,379 q -3.3,0 -5.7,1.9 -2.05,1.75 -2.25,4.1 h 16 q -0.25,-2.35 -2.4,-4.1 -2.3,-1.9 -5.65,-1.9 z"
             id="path1" /></g></g></g></g></svg>
