<?xml version="1.0" encoding="UTF-8" standalone="no"?>
<!-- Created with Inkscape (http://www.inkscape.org/) -->

<svg
   width="2732"
   height="2732"
   viewBox="0 0 722.84166 722.84166"
   version="1.1"
   id="svg1"
   inkscape:version="1.4.3 (0d15f75042, 2025-12-25)"
   sodipodi:docname="splash.svg"
   inkscape:export-filename="splash.png"
   inkscape:export-xdpi="96"
   inkscape:export-ydpi="96"
   xml:space="preserve"
   xmlns:inkscape="http://www.inkscape.org/namespaces/inkscape"
   xmlns:sodipodi="http://sodipodi.sourceforge.net/DTD/sodipodi-0.dtd"
   xmlns="http://www.w3.org/2000/svg"
   xmlns:svg="http://www.w3.org/2000/svg"><sodipodi:namedview
     id="namedview1"
     pagecolor="#ffffff"
     bordercolor="#000000"
     borderopacity="0.25"
     inkscape:showpageshadow="2"
     inkscape:pageopacity="0.0"
     inkscape:pagecheckerboard="0"
     inkscape:deskcolor="#d1d1d1"
     inkscape:document-units="px"
     inkscape:zoom="2.8284271"
     inkscape:cx="1310.6224"
     inkscape:cy="1720.3908"
     inkscape:window-width="2560"
     inkscape:window-height="1403"
     inkscape:window-x="5120"
     inkscape:window-y="0"
     inkscape:window-maximized="1"
     inkscape:current-layer="layer2"
     showguides="true"><sodipodi:guide
       position="361.42083,361.42083"
       orientation="-1,0"
       id="guide1"
       inkscape:locked="false"
       inkscape:label=""
       inkscape:color="rgb(0,134,229)" /><sodipodi:guide
       position="361.42083,361.42083"
       orientation="0,1"
       id="guide2"
       inkscape:locked="false"
       inkscape:label=""
       inkscape:color="rgb(0,134,229)" /><sodipodi:guide
       position="361.42083,274.37291"
       orientation="0,1"
       id="guide3"
       inkscape:locked="false"
       inkscape:label=""
       inkscape:color="rgb(0,134,229)" /></sodipodi:namedview><defs
     id="defs1" /><g
     inkscape:label="background"
     inkscape:groupmode="layer"
     id="g2"
     style="display:inline"><rect
       style="display:none;fill:#ffffff;stroke-width:0.464635"
       id="rect1"
       width="270.93332"
       height="270.93332"
       x="7.1207683e-06"
       y="7.1207683e-06"
       transform="matrix(2.6679689,0,0,2.6679689,-1.187722e-5,-1.187722e-5)"
       inkscape:label="white" /><rect
       style="display:inline;fill:#2678a8;fill-opacity:1;stroke-width:1.23963"
       id="rect2"
       width="722.84167"
       height="722.84167"
       x="7.1207683e-06"
       y="7.1207683e-06"
       inkscape:export-filename="icon-background.png"
       inkscape:export-xdpi="96"
       inkscape:export-ydpi="96"
       inkscape:label="blue" /></g><g
     inkscape:groupmode="layer"
     id="layer3"
     inkscape:label="player"
     transform="matrix(0.46643481,0,0,0.46643481,192.8416,192.84157)"><g
       id="g1"
       transform="matrix(17.604344,0,0,17.604344,-2847.8145,-239.46614)"
       style="display:inline"><g
         transform="matrix(0.26458333,0,0,0.26458333,155.31042,-71.172916)"
         id="g1108"><g
           id="use1108"><path
             fill="#333333"
             stroke="none"
             d="m 98.35,420.05 q 0,-2.1 -1.85,-3.55 -1.75,-1.5 -4.3,-1.5 -2.55,0 -4.4,1.5 -1.8,1.45 -1.8,3.55 0,0.15 0.05,0.2 0,0.15 0,0.25 0.1,0.9 1.55,1.6 0.1,0.05 0.2,0.1 0.5,0.2 1.1,0.4 1.5,0.4 3.3,0.4 1.8,0 3.25,-0.4 0.55,-0.2 1.05,-0.4 0.9,-0.45 1.4,-0.9 0.35,-0.4 0.45,-0.8 0,-0.1 0,-0.25 0,-0.05 0,-0.2 z"
             id="path19" /></g></g><g
         transform="matrix(0.26458333,0,0,0.26458333,155.31042,-71.172916)"
         id="g1109"><g
           id="use1109"><path
             fill="#333333"
             stroke="none"
             d="m 107.5,416.5 q -1.85,1.45 -1.85,3.55 0,0.15 0.05,0.2 0,0.15 0,0.25 0.1,0.9 1.55,1.6 0.1,0.05 0.25,0.1 0.5,0.2 1.05,0.4 1.5,0.4 3.3,0.4 1.85,0 3.25,-0.4 0.55,-0.2 1.1,-0.4 0.85,-0.45 1.35,-0.9 0.35,-0.4 0.45,-0.8 0,-0.1 0,-0.25 0,-0.05 0,-0.2 0,-2.1 -1.8,-3.55 -1.8,-1.5 -4.35,-1.5 -2.55,0 -4.35,1.5 z"
             id="path18" /></g></g><g
         transform="matrix(0.26458333,0,0,0.26458333,155.31042,-71.172916)"
         id="g1110"><g
           id="use1110"><path
             fill="#e74c3c"
             stroke="none"
             d="m 107.3,414.35 q 0.2,0.25 0.45,0.55 1.4,1.9 2,4.1 h 4.5 q 3.4,0 4.1,-2.95 0.05,-0.2 0.1,-0.4 0,-0.15 0.05,-0.35 0.05,-0.45 0.15,-0.95 v -0.05 q 0.5,-7.55 -3.2,-10.85 H 88.6 q -3.65,3.55 -3.1,10.9 0.05,0.65 0.2,1.3 0.05,0.45 0.15,0.75 0.15,0.55 0.4,0.95 1,1.65 3.5,1.65 h 4.5 q 0.55,-2.2 2,-4.1 0.25,-0.3 0.5,-0.55 2.2,-2.4 5.25,-2.4 3.05,0 5.3,2.4 z"
             id="path16" /><path
             fill="#cd4335"
             stroke="none"
             d="m 107.75,414.9 q -0.25,-0.3 -0.45,-0.55 -2.25,-2.4 -5.3,-2.4 -3.05,0 -5.25,2.4 -0.25,0.25 -0.5,0.55 -1.45,1.9 -2,4.1 h 1.55 q 0.2,-0.15 0.45,-0.35 2.35,-1.4 5.75,-1.4 3.4,0 5.75,1.4 0.2,0.2 0.45,0.35 h 1.55 q -0.6,-2.2 -2,-4.1 z"
             id="path17" /></g></g><g
         transform="matrix(0.26458333,0,0,0.26458333,155.31042,-71.172916)"
         id="g1111"><g
           id="use1111"><path
             fill="#d7bd93"
             stroke="none"
             d="m 118.55,393 q -1.85,0 -3.15,1.1 -1.25,1.2 -1.3,2.8 v 0.15 q 0.05,1.65 1.3,2.7 1.3,1.25 3.15,1.25 1.85,0 3.15,-1.25 1.3,-1.1 1.3,-2.7 0,-1.75 -1.3,-2.95 -1.3,-1.1 -3.15,-1.1 m -33.15,0 q -1.8,0 -3.1,1.1 -1.3,1.2 -1.3,2.8 v 0.15 q 0,1.65 1.3,2.7 1.3,1.25 3.1,1.25 1.85,0 3.15,-1.25 1.3,-1.1 1.3,-2.7 0,-1.75 -1.3,-2.95 -1.3,-1.1 -3.15,-1.1 z"
             id="path15" /></g></g><g
         transform="matrix(0.26458333,0,0,0.26458333,155.31042,-71.172916)"
         id="g1112"><g
           id="use1112"><path
             fill="#2ecc71"
             stroke="none"
             d="m 107.75,408.45 q 1.4,-0.95 2,-2.15 h -15.5 q 0.55,1.2 2,2.15 2.35,1.55 5.75,1.55 3.4,0 5.75,-1.55 z"
             id="path12" /><path
             fill="#694c39"
             stroke="none"
             d="m 114.35,383.1 q 0.65,8 4.65,12.2 0.05,-1.9 -0.05,-3.8 -0.2,-2.9 -0.55,-5.85 -0.25,-1.6 -1.1,-2.55 -1.05,-1.1 -3.05,-1.1 0.05,0.6 0.1,1.1 m -29.3,12.2 q 4.75,-3.85 4.75,-12.2 -0.05,-0.5 -0.05,-1.1 -1.9,0 -2.95,1.1 -0.9,0.95 -1.1,2.65 -0.5,3.2 -0.65,6.4 -0.05,1.55 0,3.15 z"
             id="path13" /><path
             fill="#ffe0b1"
             stroke="none"
             d="m 89.8,383.1 q 0,8.35 -4.75,12.2 0.05,3.65 0.65,7.3 0.05,0.45 0.15,0.8 0.15,0.65 0.4,1.1 1,1.8 3.5,1.8 h 4.5 15.5 4.5 q 3.4,0 4.1,-3.25 0.05,-0.25 0.1,-0.45 0,-0.2 0.05,-0.4 0.4,-3.1 0.5,-6.3 0,-0.3 0,-0.6 -4,-4.2 -4.65,-12.2 -0.05,-0.5 -0.1,-1.1 h -24.5 q 0,0.6 0.05,1.1 z"
             id="path14" /></g></g><g
         transform="matrix(0.26458333,0,0,0.26458333,155.31042,-71.172916)"
         id="g1113"><g
           id="use1113"><path
             fill="#694c39"
             stroke="none"
             d="m 111,393 q -0.8,0 -1.4,0.9 -0.6,0.8 -0.6,2.1 0,1.3 0.6,2.1 0.6,0.9 1.4,0.9 0.9,0 1.4,-0.9 0.6,-0.8 0.6,-2.1 0,-1.3 -0.6,-2.1 -0.5,-0.9 -1.4,-0.9 z"
             id="path11" /></g></g><g
         transform="matrix(0.26458333,0,0,0.26458333,155.31042,-71.172916)"
         id="g1114"><g
           id="use1114"><path
             fill="#694c39"
             stroke="none"
             d="m 93,393 q -0.8,0 -1.4,0.9 -0.6,0.8 -0.6,2.1 0,1.3 0.6,2.1 0.6,0.9 1.4,0.9 0.85,0 1.4,-0.9 0.6,-0.8 0.6,-2.1 0,-1.3 -0.6,-2.1 Q 93.85,393 93,393 Z"
             id="path10" /></g></g><g
         transform="matrix(0.26458333,0,0,0.26458333,155.31042,-71.172916)"
         id="g1115"><g
           id="use1115"><path
             fill="#694c39"
             stroke="none"
             d="m 95,403.3 q 0,0.75 2.05,1.2 2.1,0.5 4.95,0.5 2.9,0 5,-0.5 2,-0.45 2,-1.2 0,-1.75 -2,-3 -2.1,-1.3 -5,-1.3 -2.85,0 -4.95,1.3 -1.85,1.25 -2.05,3 z"
             id="path9" /></g></g><g
         transform="matrix(0.26458333,0,0,0.26458333,155.31042,-71.172916)"
         id="g1116"><g
           id="use1116"><path
             fill="#2ecc71"
             stroke="none"
             d="M 84,388.55 Q 83.95,391 86.65,391 h 30.7 q 2.65,0 2.65,-2.45 v -2.35 q -17.75,-2.05 -36,0 z"
             id="path7" /><path
             fill="#28b162"
             stroke="none"
             d="m 84,378.6 v 7.6 q 18.25,-2.05 36,0 v -7.6 h -0.05 q -0.55,-3.95 -5.3,-4.6 -12.65,-1.95 -25.25,-0.05 -4.85,0.7 -5.35,4.65 z"
             id="path8" /></g></g><g
         transform="matrix(0.26458333,0,0,0.26458333,155.31042,-71.172916)"
         id="g1117"><g
           id="use1117"><path
             fill="#d7bd93"
             stroke="none"
             d="m 99,399.9 q 0,0.45 0.9,0.8 0.9,0.3 2.15,0.3 1.2,0 2.1,-0.3 0.85,-0.35 0.85,-0.8 0,-1.15 -0.85,-2 -0.9,-0.9 -2.1,-0.9 -1.25,0 -2.15,0.9 -0.8,0.85 -0.9,2 z"
             id="path6" /></g></g><g
         transform="matrix(0.26458333,0,0,0.26458333,155.31042,-71.172916)"
         id="g1118"><g
           id="use1118"><path
             fill="#ffe0b1"
             stroke="none"
             d="m 91,409.3 q -0.05,-0.05 -0.1,-0.05 -0.05,-0.05 -0.1,-0.1 -0.3,-0.15 -0.55,-0.25 -1.75,-0.85 -3.55,-0.35 -2.35,0.65 -3.5,2.6 -0.5,0.85 -0.6,1.65 -0.2,1.2 0.15,2.55 0.5,1.85 2.05,2.95 0.25,0.15 0.55,0.3 0.1,0.1 0.2,0.15 1.15,0.6 2.65,-0.3 1.65,-0.9 2.75,-2.9 1.15,-1.9 1.15,-3.85 -0.05,-1.75 -1.1,-2.4 z"
             id="path4" /><path
             fill="#2ecc71"
             stroke="none"
             d="m 86.45,405 q -1.6,0.3 -2.7,1.45 -1.75,1.7 -1.75,3.95 0,1.3 0.6,2.4 0.1,-0.8 0.6,-1.65 1.15,-1.95 3.5,-2.6 1.8,-0.5 3.55,0.35 0.25,0.1 0.55,0.25 -4.05,-2.8 -4.35,-4.15 z"
             id="path5" /></g></g><g
         transform="matrix(0.26458333,0,0,0.26458333,155.31042,-71.172916)"
         id="g1119"><g
           id="use1119"><path
             fill="#ffe0b1"
             stroke="none"
             d="m 121.4,412.8 q -0.15,-0.8 -0.6,-1.65 -1.15,-1.95 -3.5,-2.6 -1.8,-0.5 -3.55,0.35 -0.25,0.1 -0.55,0.25 -0.05,0.05 -0.1,0.1 -0.05,0 -0.1,0.05 -1.05,0.65 -1.1,2.4 0,1.95 1.15,3.85 1.1,2 2.75,2.9 1.5,0.9 2.65,0.3 0.1,-0.05 0.2,-0.15 0.3,-0.15 0.55,-0.3 1.55,-1.1 2.05,-2.95 0.35,-1.35 0.15,-2.55 z"
             id="path2" /><path
             fill="#2ecc71"
             stroke="none"
             d="m 120.25,406.45 q -1.1,-1.15 -2.7,-1.45 -0.3,1.35 -4.35,4.15 0.3,-0.15 0.55,-0.25 1.75,-0.85 3.55,-0.35 2.35,0.65 3.5,2.6 0.45,0.85 0.6,1.65 0.6,-1.1 0.6,-2.4 0,-2.25 -1.75,-3.95 z"
             id="path3" /></g></g><g
         transform="matrix(0.26458333,0,0,0.26458333,155.31042,-71.172916)"
         id="g1120"><g
           id="use1120"><path
             fill="#ffffff"
             stroke="none"
             d="m 101.95,379 q -3.3,0 -5.7,1.9 -2.05,1.75 -2.25,4.1 h 16 q -0.25,-2.35 -2.4,-4.1 -2.3,-1.9 -5.65,-1.9 z"
             id="path1" /></g></g></g></g><g
     inkscape:groupmode="layer"
     id="layer2"
     inkscape:label="text"><text
       xml:space="preserve"
       style="font-size:19.7556px;font-family:'DejaVu Sans Mono';-inkscape-font-specification:'DejaVu Sans Mono';writing-mode:lr-tb;direction:ltr;display:none;fill:#0e507b;fill-opacity:1;stroke-width:0.264583"
       x="315.24405"
       y="455.62695"
       id="text1-5"
       inkscape:label="sokoban"><tspan
         sodipodi:role="line"
         id="tspan1-9"
         style="font-style:normal;font-variant:normal;font-weight:normal;font-stretch:normal;font-size:19.7556px;font-family:'Adwaita Sans';-inkscape-font-specification:'Adwaita Sans';stroke-width:0.264583"
         x="315.24405"
         y="455.62695">SOKOBAN</tspan></text><path
       style="font-size:19.7556px;font-family:'Adwaita Sans';-inkscape-font-specification:'Adwaita Sans';display:inline;fill:#0e507b;stroke-width:0.264583"
       d="m 321.41767,455.85846 q -1.65916,0 -2.87459,-0.58842 -1.21543,-0.59807 -1.88103,-1.6881 -0.66559,-1.09003 -0.66559,-2.58521 h 1.77492 q 0,1.02251 0.42443,1.76528 0.43409,0.73311 1.25402,1.12861 0.81994,0.38585 1.96784,0.38585 1.05145,0 1.82315,-0.30868 0.78135,-0.30868 1.21544,-0.87781 0.43408,-0.56913 0.43408,-1.34084 0,-0.59806 -0.27974,-1.04179 -0.27975,-0.44373 -0.90676,-0.77171 -0.61736,-0.33762 -1.65916,-0.58842 l -1.61093,-0.3955 q -2.19935,-0.54019 -3.17363,-1.44694 -0.97427,-0.90675 -0.97427,-2.37299 0,-1.24437 0.60771,-2.16077 0.61737,-0.92604 1.73634,-1.4373 1.11897,-0.51125 2.61414,-0.51125 1.49518,0 2.59485,0.54984 1.10933,0.54019 1.72669,1.54341 0.61736,1.00321 0.65595,2.38263 h -1.71704 q -0.0772,-1.35048 -0.96463,-2.11254 -0.88746,-0.7717 -2.3537,-0.7717 -0.92604,0 -1.64951,0.30868 -0.71383,0.30868 -1.12862,0.85852 -0.40514,0.54984 -0.40514,1.26366 0,0.55949 0.28939,0.97428 0.28939,0.41479 0.91639,0.73312 0.63666,0.31832 1.67846,0.57877 l 1.63022,0.40515 q 1.05145,0.26045 1.82315,0.62701 0.7717,0.36656 1.27331,0.84887 0.51125,0.48232 0.76206,1.09968 0.2508,0.60771 0.2508,1.36012 0,1.24438 -0.65595,2.18971 -0.6463,0.94534 -1.82315,1.47588 -1.1672,0.5209 -2.7299,0.5209 z m 13.36011,0 q -1.90031,0 -3.3762,-0.95498 -1.47588,-0.95498 -2.31511,-2.62379 -0.83922,-1.67845 -0.83922,-3.82958 0,-2.17041 0.83922,-3.83922 0.83923,-1.67845 2.31511,-2.63344 1.47589,-0.95498 3.3762,-0.95498 1.90997,0 3.37621,0.95498 1.47588,0.95499 2.31511,2.63344 0.83922,1.66881 0.83922,3.83922 0,2.15113 -0.83922,3.82958 -0.83923,1.66881 -2.31511,2.62379 -1.46624,0.95498 -3.37621,0.95498 z m 0,-1.62057 q 1.30225,0 2.39228,-0.6656 1.09003,-0.67524 1.74598,-1.96784 0.65595,-1.2926 0.65595,-3.15434 0,-1.87138 -0.65595,-3.16398 -0.65595,-1.30225 -1.74598,-1.96784 -1.09003,-0.67524 -2.39228,-0.67524 -1.30224,0 -2.39228,0.67524 -1.09003,0.66559 -1.74597,1.96784 -0.65595,1.2926 -0.65595,3.16398 0,1.86174 0.65595,3.15434 0.65594,1.2926 1.74597,1.96784 1.09004,0.6656 2.39228,0.6656 z m 10.00321,-2.72026 v -2.27652 q 0.5016,-0.55948 1.00321,-1.09968 0.50161,-0.54984 1.00321,-1.09967 0.51126,-0.54984 1.02251,-1.09968 l 4.36012,-4.6881 h 2.29582 l -6.13504,6.54019 h -0.0868 z m -1.17685,4.10932 v -14.37297 h 1.73633 v 5.00643 3.04822 0.84888 5.46944 z m 8.80706,0 -5.27652,-7.37941 1.07074,-1.36977 6.26044,8.74918 z m 8.92282,0.23151 q -1.90032,0 -3.3762,-0.95498 -1.47589,-0.95498 -2.31511,-2.62379 -0.83923,-1.67845 -0.83923,-3.82958 0,-2.17041 0.83923,-3.83922 0.83922,-1.67845 2.31511,-2.63344 1.47588,-0.95498 3.3762,-0.95498 1.90996,0 3.3762,0.95498 1.47588,0.95499 2.31511,2.63344 0.83923,1.66881 0.83923,3.83922 0,2.15113 -0.83923,3.82958 -0.83923,1.66881 -2.31511,2.62379 -1.46624,0.95498 -3.3762,0.95498 z m 0,-1.62057 q 1.30225,0 2.39228,-0.6656 1.09003,-0.67524 1.74598,-1.96784 0.65594,-1.2926 0.65594,-3.15434 0,-1.87138 -0.65594,-3.16398 -0.65595,-1.30225 -1.74598,-1.96784 -1.09003,-0.67524 -2.39228,-0.67524 -1.30225,0 -2.39228,0.67524 -1.09003,0.66559 -1.74598,1.96784 -0.65595,1.2926 -0.65595,3.16398 0,1.86174 0.65595,3.15434 0.65595,1.2926 1.74598,1.96784 1.09003,0.6656 2.39228,0.6656 z m 8.82635,1.38906 v -14.37297 h 5.1897 q 1.44695,0 2.4791,0.47267 1.0418,0.46302 1.59164,1.32154 0.55948,0.84888 0.55948,2.02572 0,0.81994 -0.27974,1.42765 -0.27974,0.60772 -0.80064,1.02251 -0.5209,0.40514 -1.25402,0.65595 v 0.0193 q 0.81994,0.13505 1.47588,0.54984 0.6656,0.40514 1.05145,1.10932 0.3955,0.70418 0.3955,1.73633 0,1.22508 -0.56913,2.13183 -0.55949,0.90676 -1.7074,1.40836 -1.13826,0.49196 -2.86495,0.49196 z m 1.73633,-1.5434 h 3.53054 q 1.63023,0 2.49839,-0.60772 0.87782,-0.61736 0.87782,-1.8135 0,-0.80064 -0.38586,-1.36977 -0.3762,-0.57878 -1.10932,-0.88746 -0.73312,-0.31833 -1.78456,-0.31833 h -3.62701 z m 0,-6.52089 h 3.5209 q 0.8971,0 1.53376,-0.28939 0.63665,-0.28939 0.97427,-0.81994 0.33762,-0.54019 0.33762,-1.27331 0,-1.09967 -0.75241,-1.73633 -0.75241,-0.6463 -2.09324,-0.6463 h -3.5209 z m 9.63665,8.06429 5.30546,-14.37297 h 1.96784 l 5.24758,14.37297 h -1.85208 l -3.01929,-8.66236 q -0.29904,-0.85852 -0.67524,-1.9582 -0.36656,-1.10932 -0.93569,-2.90353 h 0.5016 q -0.56913,1.79421 -0.94533,2.90353 -0.36656,1.09968 -0.67524,1.9582 l -3.10611,8.66236 z m 2.73955,-4.03215 v -1.5434 h 7.04179 v 1.5434 z m 11.40191,4.03215 v -14.37297 h 1.99678 l 5.92282,9.3569 q 0.19292,0.29904 0.48231,0.791 0.29904,0.49196 0.63666,1.07074 0.33762,0.56913 0.6463,1.12861 l -0.16399,0.34727 q -0.0193,-0.51125 -0.0482,-1.19614 -0.0193,-0.68489 -0.0289,-1.30225 -0.01,-0.61736 -0.01,-0.9164 v -9.27973 h 1.73633 v 14.37297 h -2.01608 l -5.26687,-8.3151 q -0.21222,-0.33762 -0.57878,-0.92604 -0.35691,-0.58843 -0.83922,-1.38907 -0.48232,-0.80064 -1.05145,-1.75562 l 0.20257,-0.46302 q 0.0482,1.11897 0.0675,2.00642 0.0289,0.87782 0.0386,1.51447 0.01,0.62701 0.01,0.99357 v 8.33439 z"
       id="text1-5-3"
       inkscape:label="sokoban-path"
       aria-label="SOKOBAN" /></g></svg>
