<?xml version="1.0" encoding="UTF-8" standalone="no"?>
<!-- Created with Inkscape (http://www.inkscape.org/) -->

<svg
   width="2732"
   height="2732"
   viewBox="0 0 722.84166 722.84166"
   version="1.1"
   id="svg1"
   inkscape:version="1.4.3 (0d15f75042, 2025-12-25)"
   sodipodi:docname="splash.svg"
   inkscape:export-filename="splash.png"
   inkscape:export-xdpi="96"
   inkscape:export-ydpi="96"
   xml:space="preserve"
   xmlns:inkscape="http://www.inkscape.org/namespaces/inkscape"
   xmlns:sodipodi="http://sodipodi.sourceforge.net/DTD/sodipodi-0.dtd"
   xmlns="http://www.w3.org/2000/svg"
   xmlns:svg="http://www.w3.org/2000/svg"><sodipodi:namedview
     id="namedview1"
     pagecolor="#ffffff"
     bordercolor="#000000"
     borderopacity="0.25"
     inkscape:showpageshadow="2"
     inkscape:pageopacity="0.0"
     inkscape:pagecheckerboard="0"
     inkscape:deskcolor="#d1d1d1"
     inkscape:document-units="px"
     inkscape:zoom="0.98350168"
     inkscape:cx="1406.1999"
     inkscape:cy="1426.5354"
     inkscape:window-width="2560"
     inkscape:window-height="1403"
     inkscape:window-x="5120"
     inkscape:window-y="0"
     inkscape:window-maximized="1"
     inkscape:current-layer="g2"
     showguides="true"><sodipodi:guide
       position="361.42083,361.42083"
       orientation="-1,0"
       id="guide1"
       inkscape:locked="false"
       inkscape:label=""
       inkscape:color="rgb(0,134,229)" /><sodipodi:guide
       position="361.42083,361.42083"
       orientation="0,1"
       id="guide2"
       inkscape:locked="false"
       inkscape:label=""
       inkscape:color="rgb(0,134,229)" /></sodipodi:namedview><defs
     id="defs1" /><g
     inkscape:label="background"
     inkscape:groupmode="layer"
     id="g2"
     style="display:inline"><rect
       style="display:none;fill:#ffffff;stroke-width:0.464635"
       id="rect1"
       width="270.93332"
       height="270.93332"
       x="7.1207683e-06"
       y="7.1207683e-06"
       transform="matrix(2.6679689,0,0,2.6679689,-1.187722e-5,-1.187722e-5)"
       inkscape:label="white" /><rect
       style="display:inline;fill:#1b4f9b;fill-opacity:1;stroke-width:1.23963"
       id="rect2"
       width="722.84167"
       height="722.84167"
       x="7.1207683e-06"
       y="7.1207683e-06"
       inkscape:export-filename="icon-background.png"
       inkscape:export-xdpi="96"
       inkscape:export-ydpi="96"
       inkscape:label="blue" /></g><g
     inkscape:groupmode="layer"
     id="layer3"
     inkscape:label="player"
     transform="matrix(0.46643481,0,0,0.46643481,192.8416,192.84157)"><g
       id="g1"
       transform="matrix(17.604344,0,0,17.604344,-2847.8145,-239.46614)"
       style="display:inline"><g
         transform="matrix(0.26458333,0,0,0.26458333,155.31042,-71.172916)"
         id="g1108"><g
           id="use1108"><path
             fill="#333333"
             stroke="none"
             d="m 98.35,420.05 q 0,-2.1 -1.85,-3.55 -1.75,-1.5 -4.3,-1.5 -2.55,0 -4.4,1.5 -1.8,1.45 -1.8,3.55 0,0.15 0.05,0.2 0,0.15 0,0.25 0.1,0.9 1.55,1.6 0.1,0.05 0.2,0.1 0.5,0.2 1.1,0.4 1.5,0.4 3.3,0.4 1.8,0 3.25,-0.4 0.55,-0.2 1.05,-0.4 0.9,-0.45 1.4,-0.9 0.35,-0.4 0.45,-0.8 0,-0.1 0,-0.25 0,-0.05 0,-0.2 z"
             id="path19" /></g></g><g
         transform="matrix(0.26458333,0,0,0.26458333,155.31042,-71.172916)"
         id="g1109"><g
           id="use1109"><path
             fill="#333333"
             stroke="none"
             d="m 107.5,416.5 q -1.85,1.45 -1.85,3.55 0,0.15 0.05,0.2 0,0.15 0,0.25 0.1,0.9 1.55,1.6 0.1,0.05 0.25,0.1 0.5,0.2 1.05,0.4 1.5,0.4 3.3,0.4 1.85,0 3.25,-0.4 0.55,-0.2 1.1,-0.4 0.85,-0.45 1.35,-0.9 0.35,-0.4 0.45,-0.8 0,-0.1 0,-0.25 0,-0.05 0,-0.2 0,-2.1 -1.8,-3.55 -1.8,-1.5 -4.35,-1.5 -2.55,0 -4.35,1.5 z"
             id="path18" /></g></g><g
         transform="matrix(0.26458333,0,0,0.26458333,155.31042,-71.172916)"
         id="g1110"><g
           id="use1110"><path
             fill="#e74c3c"
             stroke="none"
             d="m 107.3,414.35 q 0.2,0.25 0.45,0.55 1.4,1.9 2,4.1 h 4.5 q 3.4,0 4.1,-2.95 0.05,-0.2 0.1,-0.4 0,-0.15 0.05,-0.35 0.05,-0.45 0.15,-0.95 v -0.05 q 0.5,-7.55 -3.2,-10.85 H 88.6 q -3.65,3.55 -3.1,10.9 0.05,0.65 0.2,1.3 0.05,0.45 0.15,0.75 0.15,0.55 0.4,0.95 1,1.65 3.5,1.65 h 4.5 q 0.55,-2.2 2,-4.1 0.25,-0.3 0.5,-0.55 2.2,-2.4 5.25,-2.4 3.05,0 5.3,2.4 z"
             id="path16" /><path
             fill="#cd4335"
             stroke="none"
             d="m 107.75,414.9 q -0.25,-0.3 -0.45,-0.55 -2.25,-2.4 -5.3,-2.4 -3.05,0 -5.25,2.4 -0.25,0.25 -0.5,0.55 -1.45,1.9 -2,4.1 h 1.55 q 0.2,-0.15 0.45,-0.35 2.35,-1.4 5.75,-1.4 3.4,0 5.75,1.4 0.2,0.2 0.45,0.35 h 1.55 q -0.6,-2.2 -2,-4.1 z"
             id="path17" /></g></g><g
         transform="matrix(0.26458333,0,0,0.26458333,155.31042,-71.172916)"
         id="g1111"><g
           id="use1111"><path
             fill="#d7bd93"
             stroke="none"
             d="m 118.55,393 q -1.85,0 -3.15,1.1 -1.25,1.2 -1.3,2.8 v 0.15 q 0.05,1.65 1.3,2.7 1.3,1.25 3.15,1.25 1.85,0 3.15,-1.25 1.3,-1.1 1.3,-2.7 0,-1.75 -1.3,-2.95 -1.3,-1.1 -3.15,-1.1 m -33.15,0 q -1.8,0 -3.1,1.1 -1.3,1.2 -1.3,2.8 v 0.15 q 0,1.65 1.3,2.7 1.3,1.25 3.1,1.25 1.85,0 3.15,-1.25 1.3,-1.1 1.3,-2.7 0,-1.75 -1.3,-2.95 -1.3,-1.1 -3.15,-1.1 z"
             id="path15" /></g></g><g
         transform="matrix(0.26458333,0,0,0.26458333,155.31042,-71.172916)"
         id="g1112"><g
           id="use1112"><path
             fill="#2ecc71"
             stroke="none"
             d="m 107.75,408.45 q 1.4,-0.95 2,-2.15 h -15.5 q 0.55,1.2 2,2.15 2.35,1.55 5.75,1.55 3.4,0 5.75,-1.55 z"
             id="path12" /><path
             fill="#694c39"
             stroke="none"
             d="m 114.35,383.1 q 0.65,8 4.65,12.2 0.05,-1.9 -0.05,-3.8 -0.2,-2.9 -0.55,-5.85 -0.25,-1.6 -1.1,-2.55 -1.05,-1.1 -3.05,-1.1 0.05,0.6 0.1,1.1 m -29.3,12.2 q 4.75,-3.85 4.75,-12.2 -0.05,-0.5 -0.05,-1.1 -1.9,0 -2.95,1.1 -0.9,0.95 -1.1,2.65 -0.5,3.2 -0.65,6.4 -0.05,1.55 0,3.15 z"
             id="path13" /><path
             fill="#ffe0b1"
             stroke="none"
             d="m 89.8,383.1 q 0,8.35 -4.75,12.2 0.05,3.65 0.65,7.3 0.05,0.45 0.15,0.8 0.15,0.65 0.4,1.1 1,1.8 3.5,1.8 h 4.5 15.5 4.5 q 3.4,0 4.1,-3.25 0.05,-0.25 0.1,-0.45 0,-0.2 0.05,-0.4 0.4,-3.1 0.5,-6.3 0,-0.3 0,-0.6 -4,-4.2 -4.65,-12.2 -0.05,-0.5 -0.1,-1.1 h -24.5 q 0,0.6 0.05,1.1 z"
             id="path14" /></g></g><g
         transform="matrix(0.26458333,0,0,0.26458333,155.31042,-71.172916)"
         id="g1113"><g
           id="use1113"><path
             fill="#694c39"
             stroke="none"
             d="m 111,393 q -0.8,0 -1.4,0.9 -0.6,0.8 -0.6,2.1 0,1.3 0.6,2.1 0.6,0.9 1.4,0.9 0.9,0 1.4,-0.9 0.6,-0.8 0.6,-2.1 0,-1.3 -0.6,-2.1 -0.5,-0.9 -1.4,-0.9 z"
             id="path11" /></g></g><g
         transform="matrix(0.26458333,0,0,0.26458333,155.31042,-71.172916)"
         id="g1114"><g
           id="use1114"><path
             fill="#694c39"
             stroke="none"
             d="m 93,393 q -0.8,0 -1.4,0.9 -0.6,0.8 -0.6,2.1 0,1.3 0.6,2.1 0.6,0.9 1.4,0.9 0.85,0 1.4,-0.9 0.6,-0.8 0.6,-2.1 0,-1.3 -0.6,-2.1 Q 93.85,393 93,393 Z"
             id="path10" /></g></g><g
         transform="matrix(0.26458333,0,0,0.26458333,155.31042,-71.172916)"
         id="g1115"><g
           id="use1115"><path
             fill="#694c39"
             stroke="none"
             d="m 95,403.3 q 0,0.75 2.05,1.2 2.1,0.5 4.95,0.5 2.9,0 5,-0.5 2,-0.45 2,-1.2 0,-1.75 -2,-3 -2.1,-1.3 -5,-1.3 -2.85,0 -4.95,1.3 -1.85,1.25 -2.05,3 z"
             id="path9" /></g></g><g
         transform="matrix(0.26458333,0,0,0.26458333,155.31042,-71.172916)"
         id="g1116"><g
           id="use1116"><path
             fill="#2ecc71"
             stroke="none"
             d="M 84,388.55 Q 83.95,391 86.65,391 h 30.7 q 2.65,0 2.65,-2.45 v -2.35 q -17.75,-2.05 -36,0 z"
             id="path7" /><path
             fill="#28b162"
             stroke="none"
             d="m 84,378.6 v 7.6 q 18.25,-2.05 36,0 v -7.6 h -0.05 q -0.55,-3.95 -5.3,-4.6 -12.65,-1.95 -25.25,-0.05 -4.85,0.7 -5.35,4.65 z"
             id="path8" /></g></g><g
         transform="matrix(0.26458333,0,0,0.26458333,155.31042,-71.172916)"
         id="g1117"><g
           id="use1117"><path
             fill="#d7bd93"
             stroke="none"
             d="m 99,399.9 q 0,0.45 0.9,0.8 0.9,0.3 2.15,0.3 1.2,0 2.1,-0.3 0.85,-0.35 0.85,-0.8 0,-1.15 -0.85,-2 -0.9,-0.9 -2.1,-0.9 -1.25,0 -2.15,0.9 -0.8,0.85 -0.9,2 z"
             id="path6" /></g></g><g
         transform="matrix(0.26458333,0,0,0.26458333,155.31042,-71.172916)"
         id="g1118"><g
           id="use1118"><path
             fill="#ffe0b1"
             stroke="none"
             d="m 91,409.3 q -0.05,-0.05 -0.1,-0.05 -0.05,-0.05 -0.1,-0.1 -0.3,-0.15 -0.55,-0.25 -1.75,-0.85 -3.55,-0.35 -2.35,0.65 -3.5,2.6 -0.5,0.85 -0.6,1.65 -0.2,1.2 0.15,2.55 0.5,1.85 2.05,2.95 0.25,0.15 0.55,0.3 0.1,0.1 0.2,0.15 1.15,0.6 2.65,-0.3 1.65,-0.9 2.75,-2.9 1.15,-1.9 1.15,-3.85 -0.05,-1.75 -1.1,-2.4 z"
             id="path4" /><path
             fill="#2ecc71"
             stroke="none"
             d="m 86.45,405 q -1.6,0.3 -2.7,1.45 -1.75,1.7 -1.75,3.95 0,1.3 0.6,2.4 0.1,-0.8 0.6,-1.65 1.15,-1.95 3.5,-2.6 1.8,-0.5 3.55,0.35 0.25,0.1 0.55,0.25 -4.05,-2.8 -4.35,-4.15 z"
             id="path5" /></g></g><g
         transform="matrix(0.26458333,0,0,0.26458333,155.31042,-71.172916)"
         id="g1119"><g
           id="use1119"><path
             fill="#ffe0b1"
             stroke="none"
             d="m 121.4,412.8 q -0.15,-0.8 -0.6,-1.65 -1.15,-1.95 -3.5,-2.6 -1.8,-0.5 -3.55,0.35 -0.25,0.1 -0.55,0.25 -0.05,0.05 -0.1,0.1 -0.05,0 -0.1,0.05 -1.05,0.65 -1.1,2.4 0,1.95 1.15,3.85 1.1,2 2.75,2.9 1.5,0.9 2.65,0.3 0.1,-0.05 0.2,-0.15 0.3,-0.15 0.55,-0.3 1.55,-1.1 2.05,-2.95 0.35,-1.35 0.15,-2.55 z"
             id="path2" /><path
             fill="#2ecc71"
             stroke="none"
             d="m 120.25,406.45 q -1.1,-1.15 -2.7,-1.45 -0.3,1.35 -4.35,4.15 0.3,-0.15 0.55,-0.25 1.75,-0.85 3.55,-0.35 2.35,0.65 3.5,2.6 0.45,0.85 0.6,1.65 0.6,-1.1 0.6,-2.4 0,-2.25 -1.75,-3.95 z"
             id="path3" /></g></g><g
         transform="matrix(0.26458333,0,0,0.26458333,155.31042,-71.172916)"
         id="g1120"><g
           id="use1120"><path
             fill="#ffffff"
             stroke="none"
             d="m 101.95,379 q -3.3,0 -5.7,1.9 -2.05,1.75 -2.25,4.1 h 16 q -0.25,-2.35 -2.4,-4.1 -2.3,-1.9 -5.65,-1.9 z"
             id="path1" /></g></g></g></g><g
     inkscape:groupmode="layer"
     id="layer2"
     inkscape:label="text"><path
       d="m 325.23903,438.05197 v 2.25999 q -1.01424,-0.65044 -2.0395,-0.98117 -1.01424,-0.33073 -2.05052,-0.33073 -1.57648,0 -2.4915,0.73863 -0.91502,0.72761 -0.91502,1.97335 0,1.09141 0.59531,1.66468 0.60634,0.57326 2.24896,0.95911 l 1.16858,0.26459 q 2.31511,0.54019 3.37344,1.69774 1.05834,1.15755 1.05834,3.15295 0,2.34818 -1.45521,3.58291 -1.45521,1.23472 -4.23334,1.23472 -1.15755,0 -2.32613,-0.25356 -1.16858,-0.24253 -2.34818,-0.73863 v -2.37023 q 1.2678,0.80478 2.39228,1.17961 1.1355,0.37482 2.28203,0.37482 1.68672,0 2.62379,-0.74965 0.93706,-0.76068 0.93706,-2.11667 0,-1.23472 -0.65043,-1.88516 -0.63941,-0.65043 -2.23794,-1.00321 l -1.19062,-0.27561 q -2.29306,-0.51814 -3.32935,-1.56545 -1.03628,-1.04731 -1.03628,-2.8112 0,-2.20487 1.47726,-3.52778 1.48828,-1.33395 3.9467,-1.33395 0.94809,0 1.9954,0.22049 1.04731,0.20946 2.20487,0.63941 z m 9.22735,4.97197 q -1.5434,0 -2.33716,1.20165 -0.79375,1.20165 -0.79375,3.56085 0,2.34818 0.79375,3.56086 0.79376,1.20165 2.33716,1.20165 1.55443,0 2.34818,-1.20165 0.79375,-1.21268 0.79375,-3.56086 0,-2.3592 -0.79375,-3.56085 -0.79375,-1.20165 -2.34818,-1.20165 z m 0,-1.7198 q 2.56867,0 3.92466,1.66468 1.36701,1.66467 1.36701,4.81762 0,3.16398 -1.35599,4.82865 -1.35599,1.65365 -3.93568,1.65365 -2.56867,0 -3.92466,-1.65365 -1.35599,-1.66467 -1.35599,-4.82865 0,-3.15295 1.35599,-4.81762 1.35599,-1.66468 3.92466,-1.66468 z m 9.40374,-4.50894 h 2.09462 v 9.93291 l 5.32475,-5.12631 h 2.46944 l -4.86172,4.65226 5.6224,7.69498 h -2.48047 l -4.56407,-6.37206 -1.51033,1.42214 v 4.94992 h -2.09462 z m 17.78222,6.22874 q -1.5434,0 -2.33715,1.20165 -0.79375,1.20165 -0.79375,3.56085 0,2.34818 0.79375,3.56086 0.79375,1.20165 2.33715,1.20165 1.55443,0 2.34818,-1.20165 0.79375,-1.21268 0.79375,-3.56086 0,-2.3592 -0.79375,-3.56085 -0.79375,-1.20165 -2.34818,-1.20165 z m 0,-1.7198 q 2.56867,0 3.92466,1.66468 1.36702,1.66467 1.36702,4.81762 0,3.16398 -1.356,4.82865 -1.35599,1.65365 -3.93568,1.65365 -2.56866,0 -3.92465,-1.65365 -1.35599,-1.66467 -1.35599,-4.82865 0,-3.15295 1.35599,-4.81762 1.35599,-1.66468 3.92465,-1.66468 z m 16.92233,6.4823 q 0,-2.3592 -0.74965,-3.56085 -0.74966,-1.20165 -2.21589,-1.20165 -1.47726,0 -2.23794,1.21267 -0.76068,1.20165 -0.76068,3.54983 0,2.33716 0.76068,3.54983 0.76068,1.21268 2.23794,1.21268 1.46623,0 2.21589,-1.20165 0.74965,-1.20165 0.74965,-3.56086 z m -5.96416,-4.60816 q 0.48507,-0.904 1.33395,-1.38907 0.85989,-0.48507 1.98437,-0.48507 2.22692,0 3.50574,1.7198 1.27882,1.70877 1.27882,4.71841 0,3.05373 -1.28985,4.79557 -1.27882,1.73082 -3.51675,1.73082 -1.10244,0 -1.95131,-0.47404 -0.83785,-0.48507 -1.34497,-1.40009 v 1.55443 h -2.02847 V 436.7952 h 2.02847 z m 17.17589,4.56407 h -0.67248 q -1.77492,0 -2.67891,0.62838 -0.89297,0.61736 -0.89297,1.85209 0,1.11345 0.67248,1.73081 0.67249,0.61737 1.86311,0.61737 1.6757,0 2.63481,-1.15756 0.95912,-1.16857 0.97014,-3.2191 v -0.45199 z m 3.93568,-0.83785 v 7.04454 h -2.0395 V 452.119 q -0.65043,1.10243 -1.64262,1.6316 -0.98116,0.51814 -2.39228,0.51814 -1.88515,0 -3.00964,-1.05833 -1.12448,-1.06936 -1.12448,-2.8553 0,-2.06155 1.37804,-3.13091 1.38907,-1.06936 4.06798,-1.06936 h 2.723 v -0.3197 q -0.011,-1.47726 -0.74965,-2.13872 -0.73863,-0.67248 -2.3592,-0.67248 -1.03629,0 -2.09462,0.29765 -1.05834,0.29766 -2.06155,0.87093 v -2.02848 q 1.12448,-0.42995 2.14974,-0.63941 1.03629,-0.22049 2.00643,-0.22049 1.53238,0 2.61276,0.452 1.09141,0.452 1.76389,1.35599 0.41892,0.55122 0.59531,1.36702 0.17639,0.80477 0.17639,2.42535 z m 13.50479,-0.60634 v 7.65088 h -2.0395 v -7.65088 q 0,-1.66467 -0.58429,-2.4474 -0.58429,-0.78273 -1.83004,-0.78273 -1.42213,0 -2.19384,1.01424 -0.76067,1.00321 -0.76067,2.88837 v 6.9784 h -2.02848 V 441.6018 h 2.02848 v 1.85209 q 0.54019,-1.05834 1.46623,-1.59853 0.92604,-0.55122 2.19384,-0.55122 1.88516,0 2.8112,1.24575 0.93707,1.23473 0.93707,3.74827 z"
       id="sokoban"
       style="font-size:22.5778px;font-family:'DejaVu Sans Mono';-inkscape-font-specification:'DejaVu Sans Mono';fill:#002255;stroke-width:0.264583"
       inkscape:label="sokoban"
       aria-label="Sokoban" /></g></svg>
