<?xml version="1.0" encoding="UTF-8" standalone="no"?>
<!-- Created with Inkscape (http://www.inkscape.org/) -->

<svg
   width="256"
   height="256"
   viewBox="0 0 67.733332 67.733332"
   version="1.1"
   id="svg1"
   inkscape:version="1.4.3 (0d15f75042, 2025-12-25)"
   sodipodi:docname="box-closed.svg"
   inkscape:export-filename="box-closed.png"
   inkscape:export-xdpi="96"
   inkscape:export-ydpi="96"
   xmlns:inkscape="http://www.inkscape.org/namespaces/inkscape"
   xmlns:sodipodi="http://sodipodi.sourceforge.net/DTD/sodipodi-0.dtd"
   xmlns="http://www.w3.org/2000/svg"
   xmlns:svg="http://www.w3.org/2000/svg">
  <sodipodi:namedview
     id="namedview1"
     pagecolor="#ffffff"
     bordercolor="#000000"
     borderopacity="0.25"
     inkscape:showpageshadow="2"
     inkscape:pageopacity="0.0"
     inkscape:pagecheckerboard="0"
     inkscape:deskcolor="#d1d1d1"
     inkscape:document-units="px"
     inkscape:zoom="2.7817628"
     inkscape:cx="148.10753"
     inkscape:cy="119.70827"
     inkscape:window-width="2560"
     inkscape:window-height="1307"
     inkscape:window-x="2560"
     inkscape:window-y="32"
     inkscape:window-maximized="1"
     inkscape:current-layer="layer1" />
  <defs
     id="defs1" />
  <g
     inkscape:label="Layer 1"
     inkscape:groupmode="layer"
     id="layer1"
     transform="translate(-186.79583,-58.208333)">
    <g
       transform="matrix(1.0583333,0,0,1.0583333,-122.23748,-15.874996)"
       id="g977">
      <g
         id="use977">
        <path
           fill="#3fa8e5"
           stroke="none"
           d="M 356,77.95 Q 356,70 348.05,70 h -48.1 Q 292,70 292,77.95 v 48.1 q 0,7.95 7.95,7.95 h 48.1 q 7.95,0 7.95,-7.95 V 77.95 M 348.05,72 q 5.95,0 5.95,5.95 v 48.1 q 0,5.95 -5.95,5.95 h -48.1 Q 294,132 294,126.05 V 77.95 Q 294,72 299.95,72 Z"
           id="path1" />
        <path
           fill="#2f95d0"
           stroke="none"
           d="M 354,77.95 Q 354,72 348.05,72 h -48.1 Q 294,72 294,77.95 v 48.1 q 0,5.95 5.95,5.95 h 48.1 q 5.95,0 5.95,-5.95 V 77.95 M 346,80 v 44 H 302 V 80 h 44 m -35,39 v -4 h -4 v 4 h 4 m 0,-34 h -4 v 4 h 4 v -4 m 30,34 v -4 h -4 v 4 h 4 m 0,-34 h -4 v 4 h 4 z"
           id="path2" />
        <path
           fill="#2678a8"
           stroke="none"
           d="M 346,124 V 80 h -44 v 44 h 44 m -9,-39 h 4 v 4 h -4 v -4 m 4,30 v 4 h -4 v -4 h 4 M 307,85 h 4 v 4 h -4 v -4 m 4,30 v 4 h -4 v -4 z"
           id="path3" />
      </g>
    </g>
  </g>
</svg>
