<?xml version="1.0" encoding="UTF-8" standalone="no"?>
<!-- Created with Inkscape (http://www.inkscape.org/) -->

<svg
   width="256"
   height="256"
   viewBox="0 0 67.733331 67.733335"
   version="1.1"
   id="svg1"
   inkscape:version="1.4.3 (0d15f75042, 2025-12-25)"
   sodipodi:docname="up.svg"
   inkscape:export-filename="up.png"
   inkscape:export-xdpi="96"
   inkscape:export-ydpi="96"
   xmlns:inkscape="http://www.inkscape.org/namespaces/inkscape"
   xmlns:sodipodi="http://sodipodi.sourceforge.net/DTD/sodipodi-0.dtd"
   xmlns="http://www.w3.org/2000/svg"
   xmlns:svg="http://www.w3.org/2000/svg">
  <sodipodi:namedview
     id="namedview1"
     pagecolor="#ffffff"
     bordercolor="#000000"
     borderopacity="0.25"
     inkscape:showpageshadow="2"
     inkscape:pageopacity="0.0"
     inkscape:pagecheckerboard="0"
     inkscape:deskcolor="#d1d1d1"
     inkscape:document-units="px"
     inkscape:zoom="1.9670034"
     inkscape:cx="107.26977"
     inkscape:cy="80.833618"
     inkscape:window-width="2560"
     inkscape:window-height="1307"
     inkscape:window-x="2560"
     inkscape:window-y="32"
     inkscape:window-maximized="1"
     inkscape:current-layer="layer1"
     showguides="true">
    <sodipodi:guide
       position="33.866667,33.866667"
       orientation="0,1"
       id="guide1"
       inkscape:locked="false"
       inkscape:label=""
       inkscape:color="rgb(0,134,229)" />
    <sodipodi:guide
       position="33.866667,33.866667"
       orientation="-1,0"
       id="guide2"
       inkscape:locked="false"
       inkscape:label=""
       inkscape:color="rgb(0,134,229)" />
    <sodipodi:guide
       position="33.866667,64.029166"
       orientation="0,1"
       id="guide3"
       inkscape:locked="false"
       inkscape:label=""
       inkscape:color="rgb(0,134,229)" />
    <sodipodi:guide
       position="33.866667,3.7041666"
       orientation="0,1"
       id="guide4"
       inkscape:locked="false"
       inkscape:label=""
       inkscape:color="rgb(0,134,229)" />
  </sodipodi:namedview>
  <defs
     id="defs1" />
  <g
     inkscape:label="Layer 1"
     inkscape:groupmode="layer"
     id="layer1"
     transform="translate(-163.77709,-42.072013)">
    <g
       id="g1"
       transform="matrix(4.5611255,0,0,4.5611255,-574.70684,-146.11956)">
      <g
         transform="matrix(0.26458333,0,0,0.26458333,83.608337,-56.620833)"
         id="g1073">
        <g
           id="use1073">
          <path
             fill="#ffe0b1"
             stroke="none"
             d="m 312.9,409.25 q -0.05,-0.05 -0.1,-0.1 -0.3,-0.15 -0.55,-0.25 -1.75,-0.85 -3.55,-0.35 -2.35,0.65 -3.5,2.6 -0.5,0.85 -0.6,1.65 -0.2,1.2 0.15,2.55 0.5,1.85 2.05,2.95 0.25,0.15 0.55,0.3 0.1,0.1 0.2,0.15 1.15,0.6 2.65,-0.3 1.65,-0.9 2.75,-2.9 1.15,-1.9 1.15,-3.85 -0.05,-1.75 -1.1,-2.4 -0.05,-0.05 -0.1,-0.05 z"
             id="path14" />
          <path
             fill="#2ecc71"
             stroke="none"
             d="m 308.45,405 q -1.6,0.3 -2.7,1.45 -1.75,1.7 -1.75,3.95 0,1.3 0.6,2.4 0.1,-0.8 0.6,-1.65 1.15,-1.95 3.5,-2.6 1.8,-0.5 3.55,0.35 0.25,0.1 0.55,0.25 -4.05,-2.8 -4.35,-4.15 z"
             id="path15" />
        </g>
      </g>
      <g
         transform="matrix(0.26458333,0,0,0.26458333,83.608337,-56.620833)"
         id="g1074">
        <g
           id="use1074">
          <path
             fill="#ffe0b1"
             stroke="none"
             d="m 343.4,412.8 q -0.15,-0.8 -0.6,-1.65 -1.15,-1.95 -3.5,-2.6 -1.8,-0.5 -3.55,0.35 -0.25,0.1 -0.55,0.25 -0.05,0.05 -0.1,0.1 -0.05,0 -0.1,0.05 -1.05,0.65 -1.1,2.4 0,1.95 1.15,3.85 1.1,2 2.75,2.9 1.5,0.9 2.65,0.3 0.1,-0.05 0.2,-0.15 0.3,-0.15 0.55,-0.3 1.55,-1.1 2.05,-2.95 0.35,-1.35 0.15,-2.55 z"
             id="path12" />
          <path
             fill="#2ecc71"
             stroke="none"
             d="m 342.25,406.45 q -1.1,-1.15 -2.7,-1.45 -0.3,1.35 -4.35,4.15 0.3,-0.15 0.55,-0.25 1.75,-0.85 3.55,-0.35 2.35,0.65 3.5,2.6 0.45,0.85 0.6,1.65 0.6,-1.1 0.6,-2.4 0,-2.25 -1.75,-3.95 z"
             id="path13" />
        </g>
      </g>
      <g
         transform="matrix(0.26458333,0,0,0.26458333,83.608337,-56.620833)"
         id="g1075">
        <g
           id="use1075">
          <path
             fill="#333333"
             stroke="none"
             d="m 320.35,420.05 q 0,-2.1 -1.85,-3.55 -1.75,-1.5 -4.3,-1.5 -2.55,0 -4.4,1.5 -1.8,1.45 -1.8,3.55 0,0.15 0.05,0.2 0,0.15 0,0.25 0.1,0.9 1.55,1.6 0.1,0.05 0.2,0.1 0.5,0.2 1.1,0.4 1.5,0.4 3.3,0.4 1.8,0 3.25,-0.4 0.55,-0.2 1.05,-0.4 0.9,-0.45 1.4,-0.9 0.35,-0.4 0.45,-0.8 0,-0.1 0,-0.25 0,-0.05 0,-0.2 z"
             id="path11" />
        </g>
      </g>
      <g
         transform="matrix(0.26458333,0,0,0.26458333,83.608337,-56.620833)"
         id="g1076">
        <g
           id="use1076">
          <path
             fill="#333333"
             stroke="none"
             d="m 340,420.05 q 0,-2.1 -1.8,-3.55 -1.8,-1.5 -4.35,-1.5 -2.55,0 -4.35,1.5 -1.85,1.45 -1.85,3.55 0,0.15 0.05,0.2 0,0.15 0,0.25 0.1,0.9 1.55,1.6 0.1,0.05 0.25,0.1 0.5,0.2 1.05,0.4 1.5,0.4 3.3,0.4 1.85,0 3.25,-0.4 0.55,-0.2 1.1,-0.4 0.85,-0.45 1.35,-0.9 0.35,-0.4 0.45,-0.8 0,-0.1 0,-0.25 0,-0.05 0,-0.2 z"
             id="path10" />
        </g>
      </g>
      <g
         transform="matrix(0.26458333,0,0,0.26458333,83.608337,-56.620833)"
         id="g1077">
        <g
           id="use1077">
          <path
             fill="#e74c3c"
             stroke="none"
             d="m 307.5,414.35 q 0.05,0.65 0.2,1.3 0.05,0.45 0.15,0.75 0.15,0.55 0.4,0.95 1,1.65 3.5,1.65 h 6.05 q 0.2,-0.15 0.45,-0.35 2.35,-1.4 5.75,-1.4 3.4,0 5.75,1.4 0.2,0.2 0.45,0.35 h 6.05 q 3.4,0 4.1,-2.95 0.05,-0.2 0.1,-0.4 0,-0.15 0.05,-0.35 0.05,-0.45 0.15,-0.95 v -0.05 q 0.5,-7.55 -3.2,-10.85 H 310.6 q -3.65,3.55 -3.1,10.9 m 4.95,1.5 q -0.95,-0.95 -0.95,-2.3 v -1.25 h 6.5 v 1.25 q 0,1.35 -0.95,2.3 -0.95,0.95 -2.3,0.95 -1.35,0 -2.3,-0.95 m 18.5,0 Q 330,414.9 330,413.55 v -1.25 h 6.5 v 1.25 q 0,1.35 -0.95,2.3 -0.95,0.95 -2.3,0.95 -1.35,0 -2.3,-0.95 z"
             id="path8" />
          <path
             fill="#cd4335"
             stroke="none"
             d="m 330,413.55 q 0,1.35 0.95,2.3 0.95,0.95 2.3,0.95 1.35,0 2.3,-0.95 0.95,-0.95 0.95,-2.3 V 412.3 H 330 v 1.25 m -18.5,0 q 0,1.35 0.95,2.3 0.95,0.95 2.3,0.95 1.35,0 2.3,-0.95 0.95,-0.95 0.95,-2.3 v -1.25 h -6.5 z"
             id="path9" />
        </g>
      </g>
      <g
         transform="matrix(0.26458333,0,0,0.26458333,83.608337,-56.620833)"
         id="g1078">
        <g
           id="use1078">
          <path
             fill="#d7bd93"
             stroke="none"
             d="m 310.55,394.1 q -1.3,-1.1 -3.15,-1.1 -1.8,0 -3.1,1.1 -1.3,1.2 -1.3,2.8 v 0.15 q 0,1.65 1.3,2.7 1.3,1.25 3.1,1.25 1.85,0 3.15,-1.25 1.3,-1.1 1.3,-2.7 0,-1.75 -1.3,-2.95 m 33.15,0 q -1.3,-1.1 -3.15,-1.1 -1.85,0 -3.15,1.1 -1.25,1.2 -1.3,2.8 v 0.15 q 0.05,1.65 1.3,2.7 1.3,1.25 3.15,1.25 1.85,0 3.15,-1.25 1.3,-1.1 1.3,-2.7 0,-1.75 -1.3,-2.95 z"
             id="path7" />
        </g>
      </g>
      <g
         transform="matrix(0.26458333,0,0,0.26458333,83.608337,-56.620833)"
         id="g1079">
        <g
           id="use1079">
          <path
             fill="#2ecc71"
             stroke="none"
             d="m 316.25,406.3 q 0.55,1.2 2,2.15 2.35,1.55 5.75,1.55 3.4,0 5.75,-1.55 1.4,-0.95 2,-2.15 z"
             id="path4" />
          <path
             fill="#ffe0b1"
             stroke="none"
             d="m 311.75,406.3 h 4.5 15.5 4.5 q 3.4,0 4.1,-3.25 0.05,-0.25 0.1,-0.45 0,-0.2 0.05,-0.4 0.25,-1.75 0.35,-3.55 -16.8,4.45 -33.65,0 0.2,2 0.5,3.95 0.05,0.45 0.15,0.8 0.15,0.65 0.4,1.1 1,1.8 3.5,1.8 z"
             id="path5" />
          <path
             fill="#694c39"
             stroke="none"
             d="m 340.95,391.5 q -0.2,-2.9 -0.55,-5.85 -0.25,-1.6 -1.1,-2.55 -1.05,-1.1 -3.05,-1.1 h -24.5 q -1.9,0 -2.95,1.1 -0.9,0.95 -1.1,2.65 -0.5,3.2 -0.65,6.4 -0.05,1.55 0,3.15 0,1.7 0.15,3.35 16.85,4.45 33.65,0 0.1,-1.35 0.15,-2.75 0,-0.3 0,-0.6 0.05,-1.9 -0.05,-3.8 z"
             id="path6" />
        </g>
      </g>
      <g
         transform="matrix(0.26458333,0,0,0.26458333,83.608337,-56.620833)"
         id="g1080">
        <g
           id="use1080">
          <path
             fill="#28b162"
             stroke="none"
             d="m 341.95,378.6 q -0.55,-3.95 -5.3,-4.6 -12.65,-1.95 -25.25,-0.05 -4.85,0.7 -5.35,4.65 H 306 v 7.4 h 36 v -7.4 z"
             id="path2" />
          <path
             fill="#24a65b"
             stroke="none"
             d="M 342,388.55 V 386 h -36 v 2.55 q -0.05,2.45 2.65,2.45 h 30.7 q 2.65,0 2.65,-2.45 z"
             id="path3" />
        </g>
      </g>
      <g
         transform="matrix(0.26458333,0,0,0.26458333,83.608337,-56.620833)"
         id="g1081">
        <g
           id="use1081">
          <path
             fill="#694c39"
             stroke="none"
             d="m 327.45,385.2 q -1.4,-1.2 -3.45,-1.2 -2,0 -3.5,1.2 -1.35,1.15 -1.5,2.75 0,0.25 0.15,0.5 0.1,0.25 0.35,0.4 0.25,0.15 0.5,0.15 h 8 q 0.3,0 0.55,-0.15 0.25,-0.15 0.35,-0.4 0.15,-0.25 0.1,-0.55 -0.15,-1.55 -1.55,-2.7 z"
             id="path1" />
        </g>
      </g>
    </g>
  </g>
</svg>
