<?xml version="1.0" encoding="UTF-8" standalone="no"?>
<!-- Created with Inkscape (http://www.inkscape.org/) -->

<svg
   width="256"
   height="256"
   viewBox="0 0 67.733333 67.733332"
   version="1.1"
   id="svg1"
   inkscape:version="1.4.3 (0d15f75042, 2025-12-25)"
   sodipodi:docname="right.svg"
   inkscape:export-filename="right.png"
   inkscape:export-xdpi="96"
   inkscape:export-ydpi="96"
   xmlns:inkscape="http://www.inkscape.org/namespaces/inkscape"
   xmlns:sodipodi="http://sodipodi.sourceforge.net/DTD/sodipodi-0.dtd"
   xmlns="http://www.w3.org/2000/svg"
   xmlns:svg="http://www.w3.org/2000/svg">
  <sodipodi:namedview
     id="namedview1"
     pagecolor="#ffffff"
     bordercolor="#000000"
     borderopacity="0.25"
     inkscape:showpageshadow="2"
     inkscape:pageopacity="0.0"
     inkscape:pagecheckerboard="0"
     inkscape:deskcolor="#d1d1d1"
     inkscape:document-units="px"
     inkscape:zoom="2.7817629"
     inkscape:cx="115.39445"
     inkscape:cy="129.77382"
     inkscape:window-width="2560"
     inkscape:window-height="1307"
     inkscape:window-x="2560"
     inkscape:window-y="32"
     inkscape:window-maximized="1"
     inkscape:current-layer="layer1"
     showguides="true">
    <sodipodi:guide
       position="33.866667,33.866666"
       orientation="1,0"
       id="guide1"
       inkscape:locked="false" />
    <sodipodi:guide
       position="33.866667,33.866666"
       orientation="0,-1"
       id="guide2"
       inkscape:locked="false" />
    <sodipodi:guide
       position="33.866666,64.029166"
       orientation="0,1"
       id="guide3"
       inkscape:locked="false"
       inkscape:label=""
       inkscape:color="rgb(0,134,229)" />
    <sodipodi:guide
       position="33.866666,3.7041666"
       orientation="0,1"
       id="guide4"
       inkscape:locked="false"
       inkscape:label=""
       inkscape:color="rgb(0,134,229)" />
  </sodipodi:namedview>
  <defs
     id="defs1" />
  <g
     inkscape:label="Layer 1"
     inkscape:groupmode="layer"
     id="layer1"
     transform="translate(-162.25518,-72.497949)">
    <g
       id="g1"
       transform="matrix(4.5652961,0,0,4.5652961,-571.6532,-254.77249)">
      <g
         transform="matrix(0.26458333,0,0,0.26458333,102.12917,-65.352083)"
         id="g1160">
        <g
           id="use1160">
          <path
             fill="#333333"
             stroke="none"
             d="m 235.45,562.5 q -2.2,-1.3 -4.5,-0.9 -2.35,0.35 -3.4,2.2 -0.05,0.1 -0.1,0.15 -0.05,0.15 -0.1,0.2 -0.35,0.85 0.5,2.25 0.1,0.1 0.2,0.2 0.3,0.4 0.7,0.9 1.1,1.1 2.65,2 1.6,0.9 3,1.25 0.6,0.1 1.15,0.2 1,0 1.7,-0.15 0.5,-0.2 0.8,-0.5 0.05,-0.05 0.1,-0.2 0.05,-0.05 0.1,-0.15 1.05,-1.85 0.2,-4 -0.8,-2.2 -3,-3.45 z"
             id="path15" />
        </g>
      </g>
      <g
         transform="matrix(0.26458333,0,0,0.26458333,102.12917,-65.352083)"
         id="g1161">
        <g
           id="use1161">
          <path
             fill="#333333"
             stroke="none"
             d="m 266.8,563.75 q -1.05,-1.85 -3.4,-2.2 -2.3,-0.4 -4.5,0.85 -2.2,1.3 -3,3.5 -0.85,2.15 0.2,4 0.05,0.1 0.1,0.15 0.05,0.15 0.1,0.2 0.55,0.75 2.2,0.65 0.1,0 0.3,0 0.5,-0.1 1.1,-0.2 1.5,-0.4 3.05,-1.3 1.6,-0.9 2.6,-1.95 0.4,-0.5 0.75,-0.9 0.5,-0.9 0.7,-1.55 0.1,-0.5 0,-0.9 -0.05,-0.05 -0.1,-0.2 -0.05,-0.05 -0.1,-0.15 z"
             id="path14" />
        </g>
      </g>
      <g
         transform="matrix(0.26458333,0,0,0.26458333,102.12917,-65.352083)"
         id="g1162">
        <g
           id="use1162">
          <path
             fill="#2ecc71"
             stroke="none"
             d="m 260.3,551.4 h -11.85 q 3.2,7.65 15.05,7.65 -0.35,-5.1 -3.2,-7.65 z"
             id="path12" />
          <path
             fill="#e74c3c"
             stroke="none"
             d="m 230.55,563.6 q 0.05,0.45 0.15,0.75 0.15,0.55 0.4,0.95 1,1.65 3.5,1.65 h 24.5 q 3.4,0 4.1,-2.95 0.05,-0.2 0.1,-0.4 0,-0.15 0.05,-0.35 0.05,-0.45 0.15,-0.95 v -0.05 q 0.1,-1.7 0,-3.2 -11.85,0 -15.05,-7.65 h -15 q -3.65,3.55 -3.1,10.9 0.05,0.65 0.2,1.3 z"
             id="path13" />
        </g>
      </g>
      <g
         transform="matrix(0.26458333,0,0,0.26458333,102.12917,-65.352083)"
         id="g1163">
        <g
           id="use1163">
          <path
             fill="#2ecc71"
             stroke="none"
             d="m 241.2,552.35 q -0.9,0.45 -1.4,0.95 -0.9,0.85 -1.4,2.2 -0.15,0.35 -0.2,0.7 -0.3,2.45 1.5,4.9 2.25,2.6 2.9,1.8 0.75,-0.95 2.6,-2.15 1.85,-1.1 3.35,-1.65 1.55,-0.55 0.95,-1.95 -0.2,-0.3 -0.3,-0.55 -1.9,-3.5 -4.15,-4.5 -2,-0.55 -3.85,0.25 z"
             id="path11" />
        </g>
      </g>
      <g
         transform="matrix(0.26458333,0,0,0.26458333,102.12917,-65.352083)"
         id="g1164">
        <g
           id="use1164">
          <path
             fill="#ffe0b1"
             stroke="none"
             d="m 240.55,562.2 q 0.45,1.85 2.1,2.95 0.25,0.1 0.5,0.25 0.1,0.15 0.25,0.15 1.15,0.65 2.65,-0.3 1.6,-0.85 2.7,-2.9 1.2,-1.85 1.15,-3.85 -0.05,-1.75 -1.05,-2.35 -0.05,-0.05 -0.1,-0.05 -0.1,-0.05 -0.1,-0.15 -0.3,-0.05 -0.6,-0.25 -1.7,-0.85 -3.5,-0.35 -2.4,0.65 -3.55,2.6 -0.45,0.9 -0.55,1.65 -0.25,1.25 0.1,2.6 z"
             id="path10" />
        </g>
      </g>
      <g
         transform="matrix(0.26458333,0,0,0.26458333,102.12917,-65.352083)"
         id="g1165">
        <g
           id="use1165">
          <path
             fill="#ffe0b1"
             stroke="none"
             d="m 229.85,551.3 q 0.15,0.65 0.4,1.1 1,1.8 3.5,1.8 h 24.55 q 3.45,0 4.15,-3.25 0.05,-0.25 0.1,-0.45 0,-0.2 0.05,-0.4 0.4,-3.1 0.5,-6.35 0,-0.3 0,-0.6 0.05,-1.9 -0.05,-3.8 -0.2,-2.9 -0.55,-5.85 -0.25,-1.65 -1.1,-2.6 -1.05,-1.1 -3.1,-1.1 h -13.9 q 1.7,18.7 -14.7,20.8 0.05,0.4 0.15,0.7 z"
             id="path8" />
          <path
             fill="#694c39"
             stroke="none"
             d="m 229.7,533.6 q -0.5,3.2 -0.65,6.4 -0.05,1.55 0,3.15 0.05,3.7 0.65,7.35 0,0.05 0,0.1 16.4,-2.1 14.7,-20.8 h -10.65 q -1.9,0 -2.95,1.1 -0.9,0.95 -1.1,2.7 z"
             id="path9" />
        </g>
      </g>
      <g
         transform="matrix(0.26458333,0,0,0.26458333,102.12917,-65.352083)"
         id="g1166">
        <g
           id="use1166">
          <path
             fill="#694c39"
             stroke="none"
             d="m 250.65,541.75 q -0.6,0.8 -0.6,2.1 0,1.35 0.6,2.15 0.6,0.9 1.4,0.9 0.85,0 1.4,-0.9 0.6,-0.8 0.6,-2.15 0,-1.3 -0.6,-2.1 -0.55,-0.9 -1.4,-0.9 -0.8,0 -1.4,0.9 z"
             id="path7" />
        </g>
      </g>
      <g
         transform="matrix(0.26458333,0,0,0.26458333,102.12917,-65.352083)"
         id="g1167">
        <g
           id="use1167">
          <path
             fill="#ffe0b1"
             stroke="none"
             d="m 260.05,547.8 q 0,0.45 0.9,0.8 0.9,0.3 2.15,0.3 1.2,0 2.15,-0.3 0.85,-0.35 0.85,-0.8 0,-1.15 -0.85,-2 -0.95,-0.9 -2.15,-0.9 -1.25,0 -2.15,0.9 -0.8,0.85 -0.9,2 z"
             id="path6" />
        </g>
      </g>
      <g
         transform="matrix(0.26458333,0,0,0.26458333,102.12917,-65.352083)"
         id="g1168">
        <g
           id="use1168">
          <path
             fill="#694c39"
             stroke="none"
             d="m 253.05,551.2 q 0,0.75 2.05,1.2 2.1,0.5 4.95,0.5 0.3,0 0.6,0 1.15,-0.05 2,-0.5 0.9,-0.45 0.9,-1.2 0,-1.75 -0.9,-3 -0.85,-1.15 -2,-1.25 -0.3,-0.05 -0.6,-0.05 -2.85,0 -4.95,1.3 -1.85,1.25 -2.05,3 z"
             id="path5" />
        </g>
      </g>
      <g
         transform="matrix(0.26458333,0,0,0.26458333,102.12917,-65.352083)"
         id="g1169">
        <g
           id="use1169">
          <path
             fill="#ffffff"
             stroke="none"
             d="m 258.15,528.7 q -1.9,1.75 -2.05,4.1 3.8,-0.25 7.9,-0.3 l -0.3,-6 q -3.3,0.15 -5.55,2.2 z"
             id="path2" />
          <path
             fill="#2ecc71"
             stroke="none"
             d="m 228.2,537.45 q 0.1,2.45 3.4,2.25 l 37.35,-2.1 q 3.2,-0.15 3.05,-2.6 -4,-2.5 -8,-2.5 -4.1,0.05 -7.9,0.3 -15.9,1.05 -27.9,4.65 z"
             id="path3" />
          <path
             fill="#28b162"
             stroke="none"
             d="m 228.05,535.3 0.15,2.15 q 12,-3.6 27.9,-4.65 0.15,-2.35 2.05,-4.1 2.25,-2.05 5.55,-2.2 l -0.05,-0.8 h -0.05 q -0.8,-3.95 -5.5,-4.3 -7.25,-0.7 -14.3,-0.15 -16.7,2.2 -15.75,13.85 0,0.1 0,0.2 z"
             id="path4" />
        </g>
      </g>
      <g
         transform="matrix(0.26458333,0,0,0.26458333,102.12917,-65.352083)"
         id="g1170">
        <g
           id="use1170">
          <path
             fill="#ffe0b1"
             stroke="none"
             d="m 239.5,541.85 q -1.8,0 -3.1,1.1 -1.3,1.2 -1.3,2.85 v 0.15 q 0,1.65 1.3,2.7 1.3,1.25 3.1,1.25 1.85,0 3.2,-1.25 1.3,-1.1 1.3,-2.7 0,-1.8 -1.3,-3 -1.35,-1.1 -3.2,-1.1 z"
             id="path1" />
        </g>
      </g>
    </g>
  </g>
</svg>
