<?xml version="1.0" encoding="UTF-8" standalone="no"?>
<!-- Created with Inkscape (http://www.inkscape.org/) -->

<svg
   width="256"
   height="256"
   viewBox="0 0 67.733332 67.733332"
   version="1.1"
   id="svg1"
   sodipodi:docname="wall.svg"
   inkscape:version="1.4.3 (0d15f75042, 2025-12-25)"
   inkscape:export-filename="wall.png"
   inkscape:export-xdpi="96"
   inkscape:export-ydpi="96"
   xmlns:inkscape="http://www.inkscape.org/namespaces/inkscape"
   xmlns:sodipodi="http://sodipodi.sourceforge.net/DTD/sodipodi-0.dtd"
   xmlns="http://www.w3.org/2000/svg"
   xmlns:svg="http://www.w3.org/2000/svg">
  <sodipodi:namedview
     id="namedview1"
     pagecolor="#ffffff"
     bordercolor="#000000"
     borderopacity="0.25"
     inkscape:showpageshadow="2"
     inkscape:pageopacity="0.0"
     inkscape:pagecheckerboard="0"
     inkscape:deskcolor="#d1d1d1"
     inkscape:document-units="px"
     inkscape:zoom="3.9340067"
     inkscape:cx="114.3872"
     inkscape:cy="86.934269"
     inkscape:window-width="2560"
     inkscape:window-height="1307"
     inkscape:window-x="2560"
     inkscape:window-y="32"
     inkscape:window-maximized="1"
     inkscape:current-layer="layer1" />
  <defs
     id="defs1" />
  <g
     inkscape:label="Layer 1"
     inkscape:groupmode="layer"
     id="layer1"
     transform="translate(-178.32916,-43.656249)">
    <g
       transform="matrix(1.0583332,0,0,1.0583332,-600.6041,-500.32703)"
       id="g1206">
      <g
         id="use1206">
        <path
           fill="#aa733c"
           stroke="none"
           d="m 783,531 h -30 v 14 h 30 v -14 m 9.05,45 q 5.8,0 5.95,-5.7 V 563 h -13 v 13 h 7.05 m -9.05,0 v 2 h 2 v -2 h -2 m 15,-15 v 2 h 2 v -2 h -2 m 2,-14 v -2 h -2 v 2 h 2 m -47,16 v 13 h 30 v -13 h -30 m 0,13 h -2 v 2 h 2 v -2 m -15,-5.7 q 0.15,5.7 5.95,5.7 H 751 v -13 h -13 v 7.3 m 0,-9.3 h -2 v 2 h 2 v -2 m -2,-16 v 2 h 2 v -2 h -2 m 31,16 v -14 h -29 v 14 h 29 m 2,-14 v 14 h 29 v -14 h -29 m -18,-16 h -13 v 14 h 13 v -14 m -13,-9.05 V 529 h 29 v -13 h -23.05 q -5.95,0 -5.95,5.95 m -2,7.05 v 2 h 2 v -2 h -2 m 31,-15 v 2 h 2 v -2 h -2 m 31,17 h -13 v 14 h 13 v -14 m 0,-2 v 2 h 2 v -2 h -2 m 0,0 v -7.05 Q 798,516 792.05,516 H 769 v 13 z"
           id="path1" />
        <path
           fill="#9c6935"
           stroke="none"
           d="m 785,563 h -2 v 13 h 2 v -13 m -32,0 h -2 v 13 h 2 v -13 m 16,-2 v -14 h -2 v 14 h 2 m -16,-30 h -2 v 14 h 2 v -14 m 16,-15 h -2 v 13 h 2 v -13 m 16,15 h -2 v 14 h 2 z"
           id="path2" />
        <path
           fill="#bd8042"
           stroke="none"
           d="m 800,563 h -2 v 7.3 q -0.15,5.7 -5.95,5.7 H 785 v 2 h 7.55 q 7.2,-0.25 7.45,-7.45 V 563 m 0,-16 h -2 v 14 h 2 v -14 m -47,29 v 2 h 30 v -2 h -30 m -15,-13 h -2 v 7.55 q 0.25,7.2 7.45,7.45 H 751 v -2 h -7.05 q -5.8,0 -5.95,-5.7 V 563 m 0,-16 h -2 v 14 h 2 v -14 m 0,-16 h -2 v 14 h 2 v -14 m 29,-15 v -2 h -23.55 q -7.2,0.25 -7.45,7.45 V 529 h 2 v -7.05 Q 738,516 743.95,516 H 767 m 33,15 h -2 v 14 h 2 v -14 m -2,-9.05 V 529 h 2 v -7.55 q -0.25,-7.2 -7.45,-7.45 H 769 v 2 h 23.05 q 5.95,0 5.95,5.95 z"
           id="path3" />
        <path
           fill="#8a5d2f"
           stroke="none"
           d="m 767,547 h 2 29 v -2 h -13 -2 -30 -2 -13 v 2 h 29 m 2,14 h -2 -29 v 2 h 13 2 30 2 13 v -2 h -29 m 14,-30 h 2 13 v -2 h -29 -2 -29 v 2 h 13 2 z"
           id="path4" />
      </g>
    </g>
  </g>
</svg>
